<svg xmlns="http://www.w3.org/2000/svg" viewBox="0 0 455 455" id="a11y-icon" style="background-color:#c490d1">
	<style type="text/css">path { fill: #fff; }</style>
	<path d="M388.367,66.633C345.397,23.664,288.268,0,227.5,0C171.744,0,119.059,19.935,77.556,56.412
	c-0.04,0.036-0.081,0.07-0.12,0.106c-3.688,3.246-7.297,6.61-10.803,10.115C23.664,109.603,0,166.732,0,227.5
	s23.664,117.897,66.633,160.867S166.732,455,227.5,455s117.897-23.664,160.867-66.633C431.336,345.397,455,288.268,455,227.5
	S431.336,109.603,388.367,66.633z M434.849,180.945l-128.993,74.474V29.974C370.34,55.645,419.383,112.02,434.849,180.945z
	 M164.144,264.079v-73.158l63.356-36.579l63.357,36.579v73.158L227.5,300.658L164.144,264.079z M290.856,24.646v148.955
	L95.704,60.929C131.952,32.188,177.754,15,227.5,15C249.557,15,270.838,18.38,290.856,24.646z M83.618,71.272l128.882,74.41
	L17.255,258.407C15.778,248.314,15,237.997,15,227.5C15,165.78,41.458,110.13,83.618,71.272z M20.151,274.055l128.993-74.474
	v225.445C84.66,399.355,35.617,342.98,20.151,274.055z M164.144,430.354V281.399l59.643,34.435c0.011,0.006,0.022,0.013,0.033,0.019
	l135.476,78.217C323.048,422.812,277.245,440,227.5,440C205.443,440,184.162,436.62,164.144,430.354z M371.382,383.729
	L242.5,309.318l195.245-112.725c1.477,10.093,2.255,20.41,2.255,30.907C440,289.22,413.542,344.87,371.382,383.729z"/>
</svg>
