<?xml version="1.0" encoding="UTF-8" standalone="no"?>
<svg xmlns:dc="http://purl.org/dc/elements/1.1/"
   xmlns:cc="http://creativecommons.org/ns#"
   xmlns:rdf="http://www.w3.org/1999/02/22-rdf-syntax-ns#"
   xmlns:svg="http://www.w3.org/2000/svg"
   xmlns="http://www.w3.org/2000/svg"
   xmlns:sodipodi="http://sodipodi.sourceforge.net/DTD/sodipodi-0.dtd"
   xmlns:inkscape="http://www.inkscape.org/namespaces/inkscape" width="42.592102mm" height="9.9483013mm" viewBox="0 0 42.592102 9.9483013" version="1.1" id="svg8" inkscape:version="1.0.2-2 (e86c870879, 2021-01-15)" sodipodi:docname="pixtery.svg">
   <style type="text/css">path { fill: #fff; }</style>
   <defs id="defs2">
      <rect x="17.386906" y="83.910713" width="152.70238" height="126.24405" id="rect12" />
   </defs>
   <sodipodi:namedview id="base" pagecolor="#ffffff" bordercolor="#666666" borderopacity="1.0" inkscape:pageopacity="0.0" inkscape:pageshadow="2" inkscape:zoom="3.959798" inkscape:cx="234.08927" inkscape:cy="-4.3756696" inkscape:document-units="mm" inkscape:current-layer="text10" inkscape:document-rotation="0" showgrid="false" inkscape:window-width="3440" inkscape:window-height="1377" inkscape:window-x="-8" inkscape:window-y="-8" inkscape:window-maximized="1" />
   <metadata id="metadata5">
      <rdf:RDF>
         <cc:Work rdf:about="">
            <dc:format>image/svg+xml</dc:format>
            <dc:type rdf:resource="http://purl.org/dc/dcmitype/StillImage" />
            <dc:title />
         </cc:Work>
      </rdf:RDF>
   </metadata>
   <g inkscape:label="Layer 1" inkscape:groupmode="layer" id="layer1" transform="translate(-16.397492,-84.743101)">
      <g aria-label="pixtery" id="text10" style="font-size:10.5833px;line-height:1.25;font-family:Shrikhand;-inkscape-font-specification:Shrikhand;letter-spacing:0px;word-spacing:0px;white-space:pre;shape-inside:url(#rect12)">
         <path d="m 22.921784,87.039677 q 0.814915,0 1.28058,0.539748 0.465665,0.539749 0.465665,1.471079 0,0.497415 -0.137583,1.047747 -0.317499,1.312329 -1.18533,2.000243 -0.86783,0.677332 -2.010826,0.677332 -0.730248,0 -1.269996,-0.306916 l -0.338666,1.132413 q -0.04233,0.116416 -0.04233,0.222249 0,0.116417 0.05292,0.1905 0.05292,0.08467 0.137583,0.158749 0.08467,0.08467 0.105833,0.137583 0.03175,0.05292 0.01058,0.127 -0.04233,0.137582 -0.201082,0.190499 -0.15875,0.0635 -0.486832,0.0635 H 16.87872 q -0.275165,0 -0.391582,-0.09525 -0.126999,-0.08467 -0.07408,-0.222249 0.02117,-0.08467 0.07408,-0.137583 0.05292,-0.05292 0.148166,-0.09525 0.15875,-0.105833 0.254,-0.222249 0.09525,-0.105833 0.169332,-0.349249 l 1.545162,-5.069401 q 0.03175,-0.09525 0.03175,-0.158749 0,-0.116416 -0.05292,-0.179916 -0.05292,-0.07408 -0.15875,-0.148166 -0.105833,-0.08467 -0.148166,-0.148166 -0.04233,-0.0635 -0.01058,-0.169333 0.0635,-0.243416 0.666747,-0.423332 0.603249,-0.1905 1.259413,-0.1905 0.465665,0 0.761998,0.232833 0.306915,0.232833 0.349249,0.645581 0.719664,-0.920747 1.619244,-0.920747 z m -1.227662,3.14324 q 0.253999,-0.941914 0.253999,-1.301746 0,-0.222249 -0.07408,-0.285749 -0.0635,-0.07408 -0.1905,-0.07408 -0.09525,0 -0.243415,0.09525 -0.148167,0.08467 -0.296333,0.296332 l -0.836081,2.772825 q 0.127,0.126999 0.306916,0.126999 0.285749,0 0.539748,-0.317499 0.264583,-0.328082 0.539749,-1.312329 z" id="path13" />
         <path d="m 27.483186,87.08201 q 0.613832,0 0.899581,0.232833 0.285749,0.232833 0.285749,0.634998 0,0.243416 -0.07408,0.465665 l -0.973664,3.164407 q -0.03175,0.126999 -0.03175,0.222249 0,0.137583 0.05292,0.222249 0.05292,0.07408 0.148166,0.148166 0.07408,0.07408 0.105833,0.127 0.03175,0.04233 0.01058,0.116416 -0.05292,0.137583 -0.211666,0.201083 -0.158749,0.0635 -0.486831,0.0635 h -2.412993 q -0.275166,0 -0.402165,-0.08467 -0.127,-0.09525 -0.08467,-0.243415 0.04233,-0.127 0.22225,-0.22225 0.158749,-0.08467 0.264582,-0.201082 0.105833,-0.116417 0.179916,-0.370416 l 0.920747,-3.058574 q 0.03175,-0.09525 0.03175,-0.158749 0,-0.116416 -0.05292,-0.179916 -0.05292,-0.07408 -0.15875,-0.148166 -0.105833,-0.08467 -0.148166,-0.148166 -0.04233,-0.0635 -0.01058,-0.169333 0.0635,-0.243416 0.666748,-0.423332 0.603248,-0.1905 1.259412,-0.1905 z m 0.709081,-2.338909 q 0.412749,0 0.687915,0.275166 0.275166,0.264582 0.275166,0.656164 0,0.275166 -0.148166,0.539749 -0.137583,0.264582 -0.402166,0.433915 -0.253999,0.15875 -0.571498,0.15875 -0.402165,0 -0.677331,-0.264583 -0.264583,-0.275166 -0.275166,-0.677331 0,-0.264583 0.137583,-0.518582 0.137583,-0.264582 0.391582,-0.433915 0.253999,-0.169333 0.582081,-0.169333 z" id="path15" />
         <path d="m 34.150656,87.08201 q 0.444499,0 0.730248,0.306916 0.285749,0.296332 0.285749,0.740831 0,0.201083 -0.0635,0.412749 -0.116416,0.359832 -0.349249,0.539748 -0.222249,0.179916 -0.507998,0.179916 -0.338666,0 -0.656165,-0.222249 l -0.529165,0.497415 q 0.264583,0.719664 0.433916,1.068913 0.169333,0.349249 0.275166,0.455082 0.105833,0.09525 0.243415,0.09525 0.07408,0 0.1905,-0.05292 0.116416,-0.0635 0.179916,-0.0635 0.0635,0 0.105833,0.0635 0.04233,0.05292 0.04233,0.148166 0,0.05292 -0.02117,0.15875 -0.08467,0.359832 -0.359833,0.656164 -0.275165,0.296333 -0.656164,0.476249 -0.380999,0.169333 -0.772581,0.169333 -0.391582,0 -0.677331,-0.09525 -0.285749,-0.105833 -0.582082,-0.455082 -0.296332,-0.349249 -0.603248,-1.047746 l -0.264582,0.592664 q -0.254,0.560915 -0.518582,0.793748 -0.253999,0.222249 -0.603248,0.222249 -0.465665,0 -0.761998,-0.296332 -0.296332,-0.296333 -0.296332,-0.751415 0,-0.211666 0.0635,-0.412748 0.116416,-0.359832 0.338665,-0.539749 0.232833,-0.179916 0.518582,-0.179916 0.338666,0 0.656165,0.22225 l 0.529165,-0.497415 q -0.254,-0.719665 -0.412749,-1.068914 -0.15875,-0.359832 -0.275166,-0.455082 -0.105833,-0.105833 -0.243416,-0.105833 -0.07408,0 -0.190499,0.0635 -0.105833,0.05292 -0.169333,0.05292 -0.158749,0 -0.158749,-0.22225 0,-0.03175 0.02117,-0.137582 0.137583,-0.550332 0.666748,-0.931331 0.529165,-0.380999 1.132413,-0.380999 0.380999,0 0.666748,0.116417 0.296332,0.116416 0.582081,0.465665 0.296333,0.349249 0.592665,1.015997 l 0.296333,-0.666748 q 0.232832,-0.507999 0.486831,-0.719665 0.254,-0.211666 0.634998,-0.211666 z" id="path17" />
         <path d="m 40.056123,87.219593 q 0.201083,0 0.306916,0.08467 0.116416,0.08467 0.116416,0.232832 0,0.04233 -0.02117,0.148166 -0.137583,0.465666 -0.634998,0.465666 h -0.613831 l -0.793748,2.614075 q -0.05292,0.158749 -0.05292,0.328082 0,0.190499 0.105833,0.264582 0.105833,0.07408 0.296332,0.07408 0.169333,0 0.423332,-0.04233 0.127,-0.03175 0.22225,-0.03175 0.07408,0 0.105833,0.05292 0.04233,0.04233 0.04233,0.116416 0.01058,0.211666 -0.317499,0.518582 -0.317499,0.296332 -0.867831,0.518582 -0.550331,0.211666 -1.217079,0.211666 -0.719665,0 -1.15358,-0.328083 -0.433915,-0.328082 -0.433915,-0.89958 0,-0.264583 0.08467,-0.507999 l 0.677331,-2.095493 q 0.05292,-0.179916 0.05292,-0.285749 0,-0.211666 -0.105833,-0.359832 -0.09525,-0.148166 -0.275166,-0.306916 -0.158749,-0.148166 -0.222249,-0.243416 -0.0635,-0.105833 -0.03175,-0.243416 0.04233,-0.137583 0.179916,-0.211666 0.137583,-0.07408 0.433915,-0.07408 h 0.592665 l 0.666748,-0.666748 q 0.349249,-0.349249 0.634998,-0.486831 0.296332,-0.137583 0.761998,-0.137583 0.666747,0 0.666747,0.507998 0,0.15875 -0.04233,0.296332 l -0.148166,0.486832 z" id="path19" />
         <path d="m 43.463929,87.029094 q 1.344079,0 1.947327,0.433915 0.603248,0.423332 0.603248,1.09008 0,0.201083 -0.04233,0.370415 -0.15875,0.698498 -0.888997,1.005414 -0.719665,0.296332 -1.703912,0.296332 -0.497415,0 -0.93133,-0.0635 -0.01058,0.550331 0.296332,0.77258 0.306916,0.22225 0.857248,0.22225 0.253999,0 0.486831,-0.05292 0.232833,-0.0635 0.592665,-0.179916 0.296333,-0.105833 0.402166,-0.105833 0.116416,0 0.116416,0.137583 0.01058,0.370416 -0.275166,0.783164 -0.285749,0.402166 -0.846664,0.687915 -0.560915,0.285749 -1.354662,0.285749 -1.174746,0 -1.926161,-0.592665 -0.751414,-0.592665 -0.751414,-1.725078 0,-0.317499 0.08467,-0.740831 0.264583,-1.301746 1.15358,-1.95791 0.899581,-0.666748 2.18016,-0.666748 z m -0.941914,2.497659 q 0.04233,0.01058 0.116416,0.01058 0.444499,0 0.677332,-0.412749 0.232832,-0.412749 0.222249,-0.920747 -0.01058,-0.296332 -0.169333,-0.296332 -0.116416,0 -0.275166,0.190499 -0.158749,0.179916 -0.317499,0.550332 -0.148166,0.370415 -0.253999,0.878414 z" id="path21" />
         <path d="m 50.999232,87.08201 q 0.592665,0 0.941913,0.359833 0.359833,0.359832 0.359833,0.888997 0,0.201082 -0.04233,0.370415 -0.105833,0.433915 -0.402165,0.666748 -0.296332,0.232833 -0.709081,0.232833 -0.402165,0 -0.613831,-0.1905 -0.201083,-0.190499 -0.359833,-0.507998 -0.08467,-0.179916 -0.158749,-0.264583 -0.07408,-0.08467 -0.169333,-0.08467 -0.105833,0 -0.190499,0.08467 -0.07408,0.08467 -0.137583,0.296333 l -0.814914,2.645825 q -0.02117,0.05292 -0.02117,0.158749 0,0.137583 0.07408,0.232833 0.08467,0.08467 0.22225,0.169333 0.126999,0.08467 0.169332,0.137582 0.04233,0.05292 0.03175,0.137583 -0.02117,0.137583 -0.158749,0.201083 -0.127,0.0635 -0.444499,0.0635 h -2.709325 q -0.275165,0 -0.391582,-0.08467 -0.126999,-0.09525 -0.09525,-0.243415 0.04233,-0.127 0.222249,-0.22225 0.158749,-0.08467 0.264582,-0.201082 0.105833,-0.116417 0.179917,-0.370416 l 0.941913,-3.058574 q 0.02117,-0.05292 0.02117,-0.148166 0,-0.116416 -0.05292,-0.179916 -0.04233,-0.0635 -0.148166,-0.158749 -0.105833,-0.08467 -0.148166,-0.148166 -0.04233,-0.0635 -0.01058,-0.169333 0.0635,-0.243416 0.666747,-0.423332 0.603249,-0.1905 1.259413,-0.1905 0.433915,0 0.719665,0.201083 0.285749,0.190499 0.370415,0.550332 0.507998,-0.751415 1.333496,-0.751415 z" id="path23" />
         <path d="m 57.963015,87.08201 q 0.465666,0 0.740831,0.380999 0.285749,0.370416 0.285749,1.015997 0,0.560915 -0.201082,1.206496 -0.391582,1.301746 -1.259413,2.455326 -0.857247,1.153579 -1.979077,1.852077 -1.111246,0.698498 -2.222493,0.698498 -0.550331,0 -0.952497,-0.1905 -0.391582,-0.190499 -0.592665,-0.507998 -0.211666,-0.317499 -0.211666,-0.677331 0,-0.15875 0.05292,-0.349249 0.09525,-0.296332 0.317499,-0.455082 0.222249,-0.158749 0.529165,-0.158749 0.486832,0 0.793747,0.328082 0.317499,0.338665 0.402166,0.920747 0.677331,-0.03175 1.248829,-0.582082 -0.539748,-0.09525 -0.804331,-0.359832 -0.253999,-0.275166 -0.349249,-0.846664 l -0.423332,-2.592908 q -0.03175,-0.201083 -0.09525,-0.275166 -0.05292,-0.08467 -0.148166,-0.08467 -0.07408,0 -0.179917,0.07408 -0.09525,0.07408 -0.137582,0.07408 -0.08467,0 -0.08467,-0.179916 0,-0.148166 0.05292,-0.317499 0.190499,-0.603248 0.709081,-1.015997 0.518581,-0.423332 1.206496,-0.423332 0.677331,0 0.99483,0.402165 0.328082,0.402166 0.423332,1.238246 l 0.317499,2.328326 q 0.03175,0.264583 0.190499,0.264583 0.1905,0 0.444499,-0.338666 0.253999,-0.349249 0.497415,-0.984247 -0.317499,-0.285749 -0.486832,-0.656164 -0.169332,-0.370416 -0.169332,-0.793748 0,-0.328082 0.08467,-0.592664 0.127,-0.423332 0.391582,-0.634998 0.275166,-0.22225 0.613831,-0.22225 z" id="path25" />
      </g>
   </g>
</svg>
